<svg xmlns="http://www.w3.org/2000/svg" width="800" height="684" font-family="system-ui,-apple-system,sans-serif">
<rect width="800" height="684" fill="#ffffff" rx="8"/>
<rect width="800" height="684" fill="none" stroke="#d0d7de" rx="8"/>
<text x="20" y="28" font-size="14" font-weight="600" fill="#24292f">GitHub Trending · This week · All Languages</text>
<text x="20" y="48" font-size="12" fill="#57606a">Aug 31 – Sep 6, 2026</text>
<line x1="20" y1="56" x2="780" y2="56" stroke="#d0d7de" stroke-width="0.5"/>

<text x="250" y="85" text-anchor="end" fill="#24292f" font-size="13" font-weight="500">tt-a1i/archify</text>
<rect x="270" y="72" width="450" height="16" fill="#2da44e" rx="3"/>
<text x="780" y="85" text-anchor="end" fill="#1a7f37" font-size="12" font-weight="600">+18.1k</text>
<text x="250" y="117" text-anchor="end" fill="#24292f" font-size="13" font-weight="500">freestylefly/awesome-gpt-imag…</text>
<rect x="270" y="104" width="333" height="16" fill="#3fb950" rx="3"/>
<text x="780" y="117" text-anchor="end" fill="#1a7f37" font-size="12" font-weight="600">+13.4k</text>
<text x="250" y="149" text-anchor="end" fill="#24292f" font-size="13" font-weight="500">omacom/omarchy</text>
<rect x="270" y="136" width="166" height="16" fill="#56d364" rx="3"/>
<text x="780" y="149" text-anchor="end" fill="#1a7f37" font-size="12" font-weight="600">+6.7k</text>
<text x="250" y="181" text-anchor="end" fill="#24292f" font-size="13" font-weight="500">openai/codex</text>
<rect x="270" y="168" width="137" height="16" fill="#8ac8a0" rx="3"/>
<text x="780" y="181" text-anchor="end" fill="#1a7f37" font-size="12" font-weight="600">+5.5k</text>
<text x="250" y="213" text-anchor="end" fill="#24292f" font-size="13" font-weight="500">MadsLorentzen/ai-job-search</text>
<rect x="270" y="200" width="133" height="16" fill="#8ac8a0" rx="3"/>
<text x="780" y="213" text-anchor="end" fill="#1a7f37" font-size="12" font-weight="600">+5.3k</text>
<text x="250" y="245" text-anchor="end" fill="#24292f" font-size="13" font-weight="500">Alishahryar1/free-claude-code</text>
<rect x="270" y="232" width="107" height="16" fill="#8ac8a0" rx="3"/>
<text x="780" y="245" text-anchor="end" fill="#1a7f37" font-size="12" font-weight="600">+4.3k</text>
<text x="250" y="277" text-anchor="end" fill="#24292f" font-size="13" font-weight="500">K-Dense-AI/scientific-agent-s…</text>
<rect x="270" y="264" width="107" height="16" fill="#8ac8a0" rx="3"/>
<text x="780" y="277" text-anchor="end" fill="#1a7f37" font-size="12" font-weight="600">+4.3k</text>
<text x="250" y="309" text-anchor="end" fill="#24292f" font-size="13" font-weight="500">rohitg00/ai-engineering-from-…</text>
<rect x="270" y="296" width="92" height="16" fill="#8ac8a0" rx="3"/>
<text x="780" y="309" text-anchor="end" fill="#1a7f37" font-size="12" font-weight="600">+3.7k</text>
<text x="250" y="341" text-anchor="end" fill="#24292f" font-size="13" font-weight="500">AprilNEA/OpenLogi</text>
<rect x="270" y="328" width="85" height="16" fill="#8ac8a0" rx="3"/>
<text x="780" y="341" text-anchor="end" fill="#1a7f37" font-size="12" font-weight="600">+3.4k</text>
<text x="250" y="373" text-anchor="end" fill="#24292f" font-size="13" font-weight="500">tashfeenahmed/freellmapi</text>
<rect x="270" y="360" width="75" height="16" fill="#8ac8a0" rx="3"/>
<text x="780" y="373" text-anchor="end" fill="#1a7f37" font-size="12" font-weight="600">+3k</text>
<text x="250" y="405" text-anchor="end" fill="#24292f" font-size="13" font-weight="500">tinyhumansai/openhuman</text>
<rect x="270" y="392" width="63" height="16" fill="#8ac8a0" rx="3"/>
<text x="780" y="405" text-anchor="end" fill="#1a7f37" font-size="12" font-weight="600">+2.5k</text>
<text x="250" y="437" text-anchor="end" fill="#24292f" font-size="13" font-weight="500">anthropics/claude-plugins-com…</text>
<rect x="270" y="424" width="54" height="16" fill="#8ac8a0" rx="3"/>
<text x="780" y="437" text-anchor="end" fill="#1a7f37" font-size="12" font-weight="600">+2.2k</text>
<text x="250" y="469" text-anchor="end" fill="#24292f" font-size="13" font-weight="500">THU-MAIC/OpenMAIC</text>
<rect x="270" y="456" width="52" height="16" fill="#8ac8a0" rx="3"/>
<text x="780" y="469" text-anchor="end" fill="#1a7f37" font-size="12" font-weight="600">+2.1k</text>
<text x="250" y="501" text-anchor="end" fill="#24292f" font-size="13" font-weight="500">apache/maka</text>
<rect x="270" y="488" width="49" height="16" fill="#8ac8a0" rx="3"/>
<text x="780" y="501" text-anchor="end" fill="#1a7f37" font-size="12" font-weight="600">+2k</text>
<text x="250" y="533" text-anchor="end" fill="#24292f" font-size="13" font-weight="500">anthropics/claude-plugins-off…</text>
<rect x="270" y="520" width="48" height="16" fill="#8ac8a0" rx="3"/>
<text x="780" y="533" text-anchor="end" fill="#1a7f37" font-size="12" font-weight="600">+1.9k</text>
<text x="250" y="565" text-anchor="end" fill="#24292f" font-size="13" font-weight="500">abi/screenshot-to-code</text>
<rect x="270" y="552" width="47" height="16" fill="#8ac8a0" rx="3"/>
<text x="780" y="565" text-anchor="end" fill="#1a7f37" font-size="12" font-weight="600">+1.9k</text>
<text x="250" y="597" text-anchor="end" fill="#24292f" font-size="13" font-weight="500">cursor/plugins</text>
<rect x="270" y="584" width="37" height="16" fill="#8ac8a0" rx="3"/>
<text x="780" y="597" text-anchor="end" fill="#1a7f37" font-size="12" font-weight="600">+1.5k</text>
<text x="250" y="629" text-anchor="end" fill="#24292f" font-size="13" font-weight="500">ConardLi/garden-skills</text>
<rect x="270" y="616" width="30" height="16" fill="#8ac8a0" rx="3"/>
<text x="780" y="629" text-anchor="end" fill="#1a7f37" font-size="12" font-weight="600">+1.2k</text>
<text x="250" y="661" text-anchor="end" fill="#24292f" font-size="13" font-weight="500">google/googletest</text>
<rect x="270" y="648" width="11" height="16" fill="#8ac8a0" rx="3"/>
<text x="780" y="661" text-anchor="end" fill="#1a7f37" font-size="12" font-weight="600">+441</text>
</svg>