<svg xmlns="http://www.w3.org/2000/svg" width="800" height="684" font-family="system-ui,-apple-system,sans-serif">
<rect width="800" height="684" fill="#ffffff" rx="8"/>
<rect width="800" height="684" fill="none" stroke="#d0d7de" rx="8"/>
<text x="20" y="28" font-size="14" font-weight="600" fill="#24292f">GitHub Trending · This week · All Languages</text>
<text x="20" y="48" font-size="12" fill="#57606a">Sep 7 – Sep 13, 2026</text>
<line x1="20" y1="56" x2="780" y2="56" stroke="#d0d7de" stroke-width="0.5"/>

<text x="250" y="85" text-anchor="end" fill="#24292f" font-size="13" font-weight="500">tt-a1i/archify</text>
<rect x="270" y="72" width="450" height="16" fill="#2da44e" rx="3"/>
<text x="780" y="85" text-anchor="end" fill="#1a7f37" font-size="12" font-weight="600">+14.9k</text>
<text x="250" y="117" text-anchor="end" fill="#24292f" font-size="13" font-weight="500">DietrichGebert/ponytail</text>
<rect x="270" y="104" width="386" height="16" fill="#3fb950" rx="3"/>
<text x="780" y="117" text-anchor="end" fill="#1a7f37" font-size="12" font-weight="600">+12.8k</text>
<text x="250" y="149" text-anchor="end" fill="#24292f" font-size="13" font-weight="500">debpalash/VoiceStudio</text>
<rect x="270" y="136" width="238" height="16" fill="#56d364" rx="3"/>
<text x="780" y="149" text-anchor="end" fill="#1a7f37" font-size="12" font-weight="600">+7.9k</text>
<text x="250" y="181" text-anchor="end" fill="#24292f" font-size="13" font-weight="500">affaan-m/ECC</text>
<rect x="270" y="168" width="233" height="16" fill="#8ac8a0" rx="3"/>
<text x="780" y="181" text-anchor="end" fill="#1a7f37" font-size="12" font-weight="600">+7.7k</text>
<text x="250" y="213" text-anchor="end" fill="#24292f" font-size="13" font-weight="500">THU-MAIC/OpenMAIC</text>
<rect x="270" y="200" width="209" height="16" fill="#8ac8a0" rx="3"/>
<text x="780" y="213" text-anchor="end" fill="#1a7f37" font-size="12" font-weight="600">+6.9k</text>
<text x="250" y="245" text-anchor="end" fill="#24292f" font-size="13" font-weight="500">jingyaogong/minimind</text>
<rect x="270" y="232" width="109" height="16" fill="#8ac8a0" rx="3"/>
<text x="780" y="245" text-anchor="end" fill="#1a7f37" font-size="12" font-weight="600">+3.6k</text>
<text x="250" y="277" text-anchor="end" fill="#24292f" font-size="13" font-weight="500">google-research/timesfm</text>
<rect x="270" y="264" width="106" height="16" fill="#8ac8a0" rx="3"/>
<text x="780" y="277" text-anchor="end" fill="#1a7f37" font-size="12" font-weight="600">+3.5k</text>
<text x="250" y="309" text-anchor="end" fill="#24292f" font-size="13" font-weight="500">magnitudedev/magnitude</text>
<rect x="270" y="296" width="73" height="16" fill="#8ac8a0" rx="3"/>
<text x="780" y="309" text-anchor="end" fill="#1a7f37" font-size="12" font-weight="600">+2.4k</text>
<text x="250" y="341" text-anchor="end" fill="#24292f" font-size="13" font-weight="500">Imbad0202/academic-research-s…</text>
<rect x="270" y="328" width="72" height="16" fill="#8ac8a0" rx="3"/>
<text x="780" y="341" text-anchor="end" fill="#1a7f37" font-size="12" font-weight="600">+2.4k</text>
<text x="250" y="373" text-anchor="end" fill="#24292f" font-size="13" font-weight="500">handsomestWei/patent-disclosu…</text>
<rect x="270" y="360" width="67" height="16" fill="#8ac8a0" rx="3"/>
<text x="780" y="373" text-anchor="end" fill="#1a7f37" font-size="12" font-weight="600">+2.2k</text>
<text x="250" y="405" text-anchor="end" fill="#24292f" font-size="13" font-weight="500">every-app/open-seo</text>
<rect x="270" y="392" width="64" height="16" fill="#8ac8a0" rx="3"/>
<text x="780" y="405" text-anchor="end" fill="#1a7f37" font-size="12" font-weight="600">+2.1k</text>
<text x="250" y="437" text-anchor="end" fill="#24292f" font-size="13" font-weight="500">tailscale/tailcat</text>
<rect x="270" y="424" width="63" height="16" fill="#8ac8a0" rx="3"/>
<text x="780" y="437" text-anchor="end" fill="#1a7f37" font-size="12" font-weight="600">+2.1k</text>
<text x="250" y="469" text-anchor="end" fill="#24292f" font-size="13" font-weight="500">Gitlawb/openclaude</text>
<rect x="270" y="456" width="61" height="16" fill="#8ac8a0" rx="3"/>
<text x="780" y="469" text-anchor="end" fill="#1a7f37" font-size="12" font-weight="600">+2k</text>
<text x="250" y="501" text-anchor="end" fill="#24292f" font-size="13" font-weight="500">fmtlib/fmt</text>
<rect x="270" y="488" width="57" height="16" fill="#8ac8a0" rx="3"/>
<text x="780" y="501" text-anchor="end" fill="#1a7f37" font-size="12" font-weight="600">+1.9k</text>
<text x="250" y="533" text-anchor="end" fill="#24292f" font-size="13" font-weight="500">pollen-robotics/microduck_rl</text>
<rect x="270" y="520" width="25" height="16" fill="#8ac8a0" rx="3"/>
<text x="780" y="533" text-anchor="end" fill="#1a7f37" font-size="12" font-weight="600">+828</text>
<text x="250" y="565" text-anchor="end" fill="#24292f" font-size="13" font-weight="500">zubair-trabzada/geo-seo-claude</text>
<rect x="270" y="552" width="13" height="16" fill="#8ac8a0" rx="3"/>
<text x="780" y="565" text-anchor="end" fill="#1a7f37" font-size="12" font-weight="600">+428</text>
<text x="250" y="597" text-anchor="end" fill="#24292f" font-size="13" font-weight="500">advaitpaliwal/feynman</text>
<rect x="270" y="584" width="9" height="16" fill="#8ac8a0" rx="3"/>
<text x="780" y="597" text-anchor="end" fill="#1a7f37" font-size="12" font-weight="600">+292</text>
<text x="250" y="629" text-anchor="end" fill="#24292f" font-size="13" font-weight="500">roboflow/rf-detr</text>
<rect x="270" y="616" width="7" height="16" fill="#8ac8a0" rx="3"/>
<text x="780" y="629" text-anchor="end" fill="#1a7f37" font-size="12" font-weight="600">+235</text>
<text x="250" y="661" text-anchor="end" fill="#24292f" font-size="13" font-weight="500">colinhacks/zod</text>
<rect x="270" y="648" width="5" height="16" fill="#8ac8a0" rx="3"/>
<text x="780" y="661" text-anchor="end" fill="#1a7f37" font-size="12" font-weight="600">+175</text>
</svg>