<svg xmlns="http://www.w3.org/2000/svg" width="800" height="716" font-family="system-ui,-apple-system,sans-serif">
<rect width="800" height="716" fill="#ffffff" rx="8"/>
<rect width="800" height="716" fill="none" stroke="#d0d7de" rx="8"/>
<text x="20" y="28" font-size="14" font-weight="600" fill="#24292f">GitHub Trending · This week · All Languages</text>
<text x="20" y="48" font-size="12" fill="#57606a">Jun 15 – Jun 21, 2026</text>
<line x1="20" y1="56" x2="780" y2="56" stroke="#d0d7de" stroke-width="0.5"/>

<text x="250" y="85" text-anchor="end" fill="#24292f" font-size="13" font-weight="500">chopratejas/headroom</text>
<rect x="270" y="72" width="450" height="16" fill="#2da44e" rx="3"/>
<text x="780" y="85" text-anchor="end" fill="#1a7f37" font-size="12" font-weight="600">+12.8k</text>
<text x="250" y="117" text-anchor="end" fill="#24292f" font-size="13" font-weight="500">Panniantong/Agent-Reach</text>
<rect x="270" y="104" width="293" height="16" fill="#3fb950" rx="3"/>
<text x="780" y="117" text-anchor="end" fill="#1a7f37" font-size="12" font-weight="600">+8.3k</text>
<text x="250" y="149" text-anchor="end" fill="#24292f" font-size="13" font-weight="500">iptv-org/iptv</text>
<rect x="270" y="136" width="283" height="16" fill="#56d364" rx="3"/>
<text x="780" y="149" text-anchor="end" fill="#1a7f37" font-size="12" font-weight="600">+8k</text>
<text x="250" y="181" text-anchor="end" fill="#24292f" font-size="13" font-weight="500">addyosmani/agent-skills</text>
<rect x="270" y="168" width="252" height="16" fill="#8ac8a0" rx="3"/>
<text x="780" y="181" text-anchor="end" fill="#1a7f37" font-size="12" font-weight="600">+7.2k</text>
<text x="250" y="213" text-anchor="end" fill="#24292f" font-size="13" font-weight="500">NVIDIA/SkillSpector</text>
<rect x="270" y="200" width="177" height="16" fill="#8ac8a0" rx="3"/>
<text x="780" y="213" text-anchor="end" fill="#1a7f37" font-size="12" font-weight="600">+5k</text>
<text x="250" y="245" text-anchor="end" fill="#24292f" font-size="13" font-weight="500">apple/container</text>
<rect x="270" y="232" width="158" height="16" fill="#8ac8a0" rx="3"/>
<text x="780" y="245" text-anchor="end" fill="#1a7f37" font-size="12" font-weight="600">+4.5k</text>
<text x="250" y="277" text-anchor="end" fill="#24292f" font-size="13" font-weight="500">DeusData/codebase-memory-mcp</text>
<rect x="270" y="264" width="148" height="16" fill="#8ac8a0" rx="3"/>
<text x="780" y="277" text-anchor="end" fill="#1a7f37" font-size="12" font-weight="600">+4.2k</text>
<text x="250" y="309" text-anchor="end" fill="#24292f" font-size="13" font-weight="500">freeCodeCamp/freeCodeCamp</text>
<rect x="270" y="296" width="114" height="16" fill="#8ac8a0" rx="3"/>
<text x="780" y="309" text-anchor="end" fill="#1a7f37" font-size="12" font-weight="600">+3.2k</text>
<text x="250" y="341" text-anchor="end" fill="#24292f" font-size="13" font-weight="500">phuryn/pm-skills</text>
<rect x="270" y="328" width="106" height="16" fill="#8ac8a0" rx="3"/>
<text x="780" y="341" text-anchor="end" fill="#1a7f37" font-size="12" font-weight="600">+3k</text>
<text x="250" y="373" text-anchor="end" fill="#24292f" font-size="13" font-weight="500">lfnovo/open-notebook</text>
<rect x="270" y="360" width="84" height="16" fill="#8ac8a0" rx="3"/>
<text x="780" y="373" text-anchor="end" fill="#1a7f37" font-size="12" font-weight="600">+2.4k</text>
<text x="250" y="405" text-anchor="end" fill="#24292f" font-size="13" font-weight="500">chatwoot/chatwoot</text>
<rect x="270" y="392" width="74" height="16" fill="#8ac8a0" rx="3"/>
<text x="780" y="405" text-anchor="end" fill="#1a7f37" font-size="12" font-weight="600">+2.1k</text>
<text x="250" y="437" text-anchor="end" fill="#24292f" font-size="13" font-weight="500">asgeirtj/system_prompts_leaks</text>
<rect x="270" y="424" width="59" height="16" fill="#8ac8a0" rx="3"/>
<text x="780" y="437" text-anchor="end" fill="#1a7f37" font-size="12" font-weight="600">+1.7k</text>
<text x="250" y="469" text-anchor="end" fill="#24292f" font-size="13" font-weight="500">music-assistant/server</text>
<rect x="270" y="456" width="38" height="16" fill="#8ac8a0" rx="3"/>
<text x="780" y="469" text-anchor="end" fill="#1a7f37" font-size="12" font-weight="600">+1.1k</text>
<text x="250" y="501" text-anchor="end" fill="#24292f" font-size="13" font-weight="500">kenn-io/agentsview</text>
<rect x="270" y="488" width="34" height="16" fill="#8ac8a0" rx="3"/>
<text x="780" y="501" text-anchor="end" fill="#1a7f37" font-size="12" font-weight="600">+955</text>
<text x="250" y="533" text-anchor="end" fill="#24292f" font-size="13" font-weight="500">meshery/meshery</text>
<rect x="270" y="520" width="31" height="16" fill="#8ac8a0" rx="3"/>
<text x="780" y="533" text-anchor="end" fill="#1a7f37" font-size="12" font-weight="600">+879</text>
<text x="250" y="565" text-anchor="end" fill="#24292f" font-size="13" font-weight="500">LMCache/LMCache</text>
<rect x="270" y="552" width="31" height="16" fill="#8ac8a0" rx="3"/>
<text x="780" y="565" text-anchor="end" fill="#1a7f37" font-size="12" font-weight="600">+876</text>
<text x="250" y="597" text-anchor="end" fill="#24292f" font-size="13" font-weight="500">cypress-io/cypress</text>
<rect x="270" y="584" width="23" height="16" fill="#8ac8a0" rx="3"/>
<text x="780" y="597" text-anchor="end" fill="#1a7f37" font-size="12" font-weight="600">+648</text>
<text x="250" y="629" text-anchor="end" fill="#24292f" font-size="13" font-weight="500">puppeteer/puppeteer</text>
<rect x="270" y="616" width="22" height="16" fill="#8ac8a0" rx="3"/>
<text x="780" y="629" text-anchor="end" fill="#1a7f37" font-size="12" font-weight="600">+620</text>
<text x="250" y="661" text-anchor="end" fill="#24292f" font-size="13" font-weight="500">swc-project/swc</text>
<rect x="270" y="648" width="19" height="16" fill="#8ac8a0" rx="3"/>
<text x="780" y="661" text-anchor="end" fill="#1a7f37" font-size="12" font-weight="600">+545</text>
<text x="250" y="693" text-anchor="end" fill="#24292f" font-size="13" font-weight="500">pytest-dev/pytest</text>
<rect x="270" y="680" width="11" height="16" fill="#8ac8a0" rx="3"/>
<text x="780" y="693" text-anchor="end" fill="#1a7f37" font-size="12" font-weight="600">+309</text>
</svg>