<svg xmlns="http://www.w3.org/2000/svg" width="800" height="748" font-family="system-ui,-apple-system,sans-serif">
<rect width="800" height="748" fill="#ffffff" rx="8"/>
<rect width="800" height="748" fill="none" stroke="#d0d7de" rx="8"/>
<text x="20" y="28" font-size="14" font-weight="600" fill="#24292f">GitHub Trending · This week · All Languages</text>
<text x="20" y="48" font-size="12" fill="#57606a">Sep 14 – Sep 20, 2026</text>
<line x1="20" y1="56" x2="780" y2="56" stroke="#d0d7de" stroke-width="0.5"/>

<text x="250" y="85" text-anchor="end" fill="#24292f" font-size="13" font-weight="500">alibaba/open-code-review</text>
<rect x="270" y="72" width="450" height="16" fill="#2da44e" rx="3"/>
<text x="780" y="85" text-anchor="end" fill="#1a7f37" font-size="12" font-weight="600">+15k</text>
<text x="250" y="117" text-anchor="end" fill="#24292f" font-size="13" font-weight="500">bilawalsidhu/gods-eye-view</text>
<rect x="270" y="104" width="306" height="16" fill="#3fb950" rx="3"/>
<text x="780" y="117" text-anchor="end" fill="#1a7f37" font-size="12" font-weight="600">+10.2k</text>
<text x="250" y="149" text-anchor="end" fill="#24292f" font-size="13" font-weight="500">affaan-m/ECC</text>
<rect x="270" y="136" width="188" height="16" fill="#56d364" rx="3"/>
<text x="780" y="149" text-anchor="end" fill="#1a7f37" font-size="12" font-weight="600">+6.3k</text>
<text x="250" y="181" text-anchor="end" fill="#24292f" font-size="13" font-weight="500">ayghri/i-have-adhd</text>
<rect x="270" y="168" width="167" height="16" fill="#8ac8a0" rx="3"/>
<text x="780" y="181" text-anchor="end" fill="#1a7f37" font-size="12" font-weight="600">+5.6k</text>
<text x="250" y="213" text-anchor="end" fill="#24292f" font-size="13" font-weight="500">stablyai/orca</text>
<rect x="270" y="200" width="162" height="16" fill="#8ac8a0" rx="3"/>
<text x="780" y="213" text-anchor="end" fill="#1a7f37" font-size="12" font-weight="600">+5.4k</text>
<text x="250" y="245" text-anchor="end" fill="#24292f" font-size="13" font-weight="500">Tencent/WeKnora</text>
<rect x="270" y="232" width="146" height="16" fill="#8ac8a0" rx="3"/>
<text x="780" y="245" text-anchor="end" fill="#1a7f37" font-size="12" font-weight="600">+4.9k</text>
<text x="250" y="277" text-anchor="end" fill="#24292f" font-size="13" font-weight="500">Panniantong/Agent-Reach</text>
<rect x="270" y="264" width="117" height="16" fill="#8ac8a0" rx="3"/>
<text x="780" y="277" text-anchor="end" fill="#1a7f37" font-size="12" font-weight="600">+3.9k</text>
<text x="250" y="309" text-anchor="end" fill="#24292f" font-size="13" font-weight="500">addyosmani/agent-skills</text>
<rect x="270" y="296" width="103" height="16" fill="#8ac8a0" rx="3"/>
<text x="780" y="309" text-anchor="end" fill="#1a7f37" font-size="12" font-weight="600">+3.4k</text>
<text x="250" y="341" text-anchor="end" fill="#24292f" font-size="13" font-weight="500">blader/humanizer</text>
<rect x="270" y="328" width="91" height="16" fill="#8ac8a0" rx="3"/>
<text x="780" y="341" text-anchor="end" fill="#1a7f37" font-size="12" font-weight="600">+3k</text>
<text x="250" y="373" text-anchor="end" fill="#24292f" font-size="13" font-weight="500">microsoft/markitdown</text>
<rect x="270" y="360" width="83" height="16" fill="#8ac8a0" rx="3"/>
<text x="780" y="373" text-anchor="end" fill="#1a7f37" font-size="12" font-weight="600">+2.8k</text>
<text x="250" y="405" text-anchor="end" fill="#24292f" font-size="13" font-weight="500">heygen-com/hyperframes</text>
<rect x="270" y="392" width="75" height="16" fill="#8ac8a0" rx="3"/>
<text x="780" y="405" text-anchor="end" fill="#1a7f37" font-size="12" font-weight="600">+2.5k</text>
<text x="250" y="437" text-anchor="end" fill="#24292f" font-size="13" font-weight="500">anthropics/claude-code</text>
<rect x="270" y="424" width="60" height="16" fill="#8ac8a0" rx="3"/>
<text x="780" y="437" text-anchor="end" fill="#1a7f37" font-size="12" font-weight="600">+2k</text>
<text x="250" y="469" text-anchor="end" fill="#24292f" font-size="13" font-weight="500">danny-avila/LibreChat</text>
<rect x="270" y="456" width="47" height="16" fill="#8ac8a0" rx="3"/>
<text x="780" y="469" text-anchor="end" fill="#1a7f37" font-size="12" font-weight="600">+1.6k</text>
<text x="250" y="501" text-anchor="end" fill="#24292f" font-size="13" font-weight="500">supabase/supabase</text>
<rect x="270" y="488" width="42" height="16" fill="#8ac8a0" rx="3"/>
<text x="780" y="501" text-anchor="end" fill="#1a7f37" font-size="12" font-weight="600">+1.4k</text>
<text x="250" y="533" text-anchor="end" fill="#24292f" font-size="13" font-weight="500">mksglu/context-mode</text>
<rect x="270" y="520" width="41" height="16" fill="#8ac8a0" rx="3"/>
<text x="780" y="533" text-anchor="end" fill="#1a7f37" font-size="12" font-weight="600">+1.4k</text>
<text x="250" y="565" text-anchor="end" fill="#24292f" font-size="13" font-weight="500">huggingface/transformers</text>
<rect x="270" y="552" width="39" height="16" fill="#8ac8a0" rx="3"/>
<text x="780" y="565" text-anchor="end" fill="#1a7f37" font-size="12" font-weight="600">+1.3k</text>
<text x="250" y="597" text-anchor="end" fill="#24292f" font-size="13" font-weight="500">max-sixty/worktrunk</text>
<rect x="270" y="584" width="34" height="16" fill="#8ac8a0" rx="3"/>
<text x="780" y="597" text-anchor="end" fill="#1a7f37" font-size="12" font-weight="600">+1.1k</text>
<text x="250" y="629" text-anchor="end" fill="#24292f" font-size="13" font-weight="500">kunchenguid/firstmate</text>
<rect x="270" y="616" width="32" height="16" fill="#8ac8a0" rx="3"/>
<text x="780" y="629" text-anchor="end" fill="#1a7f37" font-size="12" font-weight="600">+1.1k</text>
<text x="250" y="661" text-anchor="end" fill="#24292f" font-size="13" font-weight="500">anthropics/knowledge-work-plu…</text>
<rect x="270" y="648" width="31" height="16" fill="#8ac8a0" rx="3"/>
<text x="780" y="661" text-anchor="end" fill="#1a7f37" font-size="12" font-weight="600">+1k</text>
<text x="250" y="693" text-anchor="end" fill="#24292f" font-size="13" font-weight="500">openai/plugins</text>
<rect x="270" y="680" width="16" height="16" fill="#8ac8a0" rx="3"/>
<text x="780" y="693" text-anchor="end" fill="#1a7f37" font-size="12" font-weight="600">+522</text>
<text x="250" y="725" text-anchor="end" fill="#24292f" font-size="13" font-weight="500">home-assistant/core</text>
<rect x="270" y="712" width="12" height="16" fill="#8ac8a0" rx="3"/>
<text x="780" y="725" text-anchor="end" fill="#1a7f37" font-size="12" font-weight="600">+417</text>
</svg>