<svg xmlns="http://www.w3.org/2000/svg" width="800" height="684" font-family="system-ui,-apple-system,sans-serif">
<rect width="800" height="684" fill="#ffffff" rx="8"/>
<rect width="800" height="684" fill="none" stroke="#d0d7de" rx="8"/>
<text x="20" y="28" font-size="14" font-weight="600" fill="#24292f">GitHub Trending · This week · All Languages</text>
<text x="20" y="48" font-size="12" fill="#57606a">Jul 13 – Jul 19, 2026</text>
<line x1="20" y1="56" x2="780" y2="56" stroke="#d0d7de" stroke-width="0.5"/>

<text x="250" y="85" text-anchor="end" fill="#24292f" font-size="13" font-weight="500">OpenCut-app/OpenCut</text>
<rect x="270" y="72" width="450" height="16" fill="#2da44e" rx="3"/>
<text x="780" y="85" text-anchor="end" fill="#1a7f37" font-size="12" font-weight="600">+12.7k</text>
<text x="250" y="117" text-anchor="end" fill="#24292f" font-size="13" font-weight="500">Nutlope/hallmark</text>
<rect x="270" y="104" width="286" height="16" fill="#3fb950" rx="3"/>
<text x="780" y="117" text-anchor="end" fill="#1a7f37" font-size="12" font-weight="600">+8.1k</text>
<text x="250" y="149" text-anchor="end" fill="#24292f" font-size="13" font-weight="500">Shubhamsaboo/awesome-llm-apps</text>
<rect x="270" y="136" width="221" height="16" fill="#56d364" rx="3"/>
<text x="780" y="149" text-anchor="end" fill="#1a7f37" font-size="12" font-weight="600">+6.3k</text>
<text x="250" y="181" text-anchor="end" fill="#24292f" font-size="13" font-weight="500">HKUDS/Vibe-Trading</text>
<rect x="270" y="168" width="199" height="16" fill="#8ac8a0" rx="3"/>
<text x="780" y="181" text-anchor="end" fill="#1a7f37" font-size="12" font-weight="600">+5.6k</text>
<text x="250" y="213" text-anchor="end" fill="#24292f" font-size="13" font-weight="500">stablyai/orca</text>
<rect x="270" y="200" width="191" height="16" fill="#8ac8a0" rx="3"/>
<text x="780" y="213" text-anchor="end" fill="#1a7f37" font-size="12" font-weight="600">+5.4k</text>
<text x="250" y="245" text-anchor="end" fill="#24292f" font-size="13" font-weight="500">iOfficeAI/OfficeCLI</text>
<rect x="270" y="232" width="163" height="16" fill="#8ac8a0" rx="3"/>
<text x="780" y="245" text-anchor="end" fill="#1a7f37" font-size="12" font-weight="600">+4.6k</text>
<text x="250" y="277" text-anchor="end" fill="#24292f" font-size="13" font-weight="500">diegosouzapw/OmniRoute</text>
<rect x="270" y="264" width="128" height="16" fill="#8ac8a0" rx="3"/>
<text x="780" y="277" text-anchor="end" fill="#1a7f37" font-size="12" font-weight="600">+3.6k</text>
<text x="250" y="309" text-anchor="end" fill="#24292f" font-size="13" font-weight="500">ogulcancelik/herdr</text>
<rect x="270" y="296" width="89" height="16" fill="#8ac8a0" rx="3"/>
<text x="780" y="309" text-anchor="end" fill="#1a7f37" font-size="12" font-weight="600">+2.5k</text>
<text x="250" y="341" text-anchor="end" fill="#24292f" font-size="13" font-weight="500">pbakaus/impeccable</text>
<rect x="270" y="328" width="82" height="16" fill="#8ac8a0" rx="3"/>
<text x="780" y="341" text-anchor="end" fill="#1a7f37" font-size="12" font-weight="600">+2.3k</text>
<text x="250" y="373" text-anchor="end" fill="#24292f" font-size="13" font-weight="500">openai/codex-plugin-cc</text>
<rect x="270" y="360" width="64" height="16" fill="#8ac8a0" rx="3"/>
<text x="780" y="373" text-anchor="end" fill="#1a7f37" font-size="12" font-weight="600">+1.8k</text>
<text x="250" y="405" text-anchor="end" fill="#24292f" font-size="13" font-weight="500">HKUDS/DeepTutor</text>
<rect x="270" y="392" width="64" height="16" fill="#8ac8a0" rx="3"/>
<text x="780" y="405" text-anchor="end" fill="#1a7f37" font-size="12" font-weight="600">+1.8k</text>
<text x="250" y="437" text-anchor="end" fill="#24292f" font-size="13" font-weight="500">wonderwhy-er/DesktopCommander…</text>
<rect x="270" y="424" width="59" height="16" fill="#8ac8a0" rx="3"/>
<text x="780" y="437" text-anchor="end" fill="#1a7f37" font-size="12" font-weight="600">+1.7k</text>
<text x="250" y="469" text-anchor="end" fill="#24292f" font-size="13" font-weight="500">oven-sh/bun</text>
<rect x="270" y="456" width="43" height="16" fill="#8ac8a0" rx="3"/>
<text x="780" y="469" text-anchor="end" fill="#1a7f37" font-size="12" font-weight="600">+1.2k</text>
<text x="250" y="501" text-anchor="end" fill="#24292f" font-size="13" font-weight="500">kangarooking/cangjie-skill</text>
<rect x="270" y="488" width="41" height="16" fill="#8ac8a0" rx="3"/>
<text x="780" y="501" text-anchor="end" fill="#1a7f37" font-size="12" font-weight="600">+1.2k</text>
<text x="250" y="533" text-anchor="end" fill="#24292f" font-size="13" font-weight="500">davila7/claude-code-templates</text>
<rect x="270" y="520" width="38" height="16" fill="#8ac8a0" rx="3"/>
<text x="780" y="533" text-anchor="end" fill="#1a7f37" font-size="12" font-weight="600">+1.1k</text>
<text x="250" y="565" text-anchor="end" fill="#24292f" font-size="13" font-weight="500">google-labs-code/stitch-skills</text>
<rect x="270" y="552" width="38" height="16" fill="#8ac8a0" rx="3"/>
<text x="780" y="565" text-anchor="end" fill="#1a7f37" font-size="12" font-weight="600">+1.1k</text>
<text x="250" y="597" text-anchor="end" fill="#24292f" font-size="13" font-weight="500">vercel-labs/native</text>
<rect x="270" y="584" width="30" height="16" fill="#8ac8a0" rx="3"/>
<text x="780" y="597" text-anchor="end" fill="#1a7f37" font-size="12" font-weight="600">+854</text>
<text x="250" y="629" text-anchor="end" fill="#24292f" font-size="13" font-weight="500">abseil/abseil-cpp</text>
<rect x="270" y="616" width="22" height="16" fill="#8ac8a0" rx="3"/>
<text x="780" y="629" text-anchor="end" fill="#1a7f37" font-size="12" font-weight="600">+608</text>
<text x="250" y="661" text-anchor="end" fill="#24292f" font-size="13" font-weight="500">actions/checkout</text>
<rect x="270" y="648" width="6" height="16" fill="#8ac8a0" rx="3"/>
<text x="780" y="661" text-anchor="end" fill="#1a7f37" font-size="12" font-weight="600">+159</text>
</svg>